<svg xmlns="http://www.w3.org/2000/svg" viewBox="0 0 60.61 60.61"><defs><style>.cls-1{fill:none;}</style></defs><g id="Capa_2" data-name="Capa 2"><g id="Capa_1-2" data-name="Capa 1"><rect class="cls-1" width="60.61" height="60.61"/><path d="M4.17,29.8h0A2,2,0,0,1,7,29.87L22.13,47a2,2,0,0,1-.06,2.84h0a2,2,0,0,1-2.84-.06L4.11,32.65A2,2,0,0,1,4.17,29.8Z"/><path d="M19.51,49.79h0A2,2,0,0,1,19.57,47L53.66,14.88A2,2,0,0,1,56.5,15h0a2,2,0,0,1-.06,2.84L22.35,49.85A2,2,0,0,1,19.51,49.79Z"/></g></g></svg>