<svg xmlns="http://www.w3.org/2000/svg" viewBox="0 0 51.38 51.38"><defs><style>.cls-1{fill:#fff;}</style></defs><g id="Capa_2" data-name="Capa 2"><g id="Capa_1-2" data-name="Capa 1"><path class="cls-1" d="M.86,48.87h0A3.09,3.09,0,0,1,1,44.5L46.15,2.41a3.09,3.09,0,0,1,4.37.1h0a3.09,3.09,0,0,1-.09,4.37L5.23,49A3.09,3.09,0,0,1,.86,48.87Z"/><path class="cls-1" d="M48.87,50.52h0a3.09,3.09,0,0,1-4.37-.09L2.41,5.23A3.09,3.09,0,0,1,2.51.86h0A3.09,3.09,0,0,1,6.88,1L49,46.15A3.09,3.09,0,0,1,48.87,50.52Z"/></g></g></svg>