<svg xmlns="http://www.w3.org/2000/svg" viewBox="0 0 60.61 60.61"><defs><style>.cls-1{fill:none;}</style></defs><g id="Capa_2" data-name="Capa 2"><g id="Capa_1-2" data-name="Capa 1"><rect class="cls-1" width="60.61" height="60.61"/><path d="M12.13,47.58h0a2.31,2.31,0,0,1,.07-3.26L45.88,13a2.29,2.29,0,0,1,3.25.08h0a2.29,2.29,0,0,1-.07,3.25L15.38,47.65A2.29,2.29,0,0,1,12.13,47.58Z"/><path d="M47.9,48.81h0a2.31,2.31,0,0,1-3.26-.07L13.29,15.06a2.31,2.31,0,0,1,.07-3.26h0a2.29,2.29,0,0,1,3.25.08L48,45.55A2.31,2.31,0,0,1,47.9,48.81Z"/></g></g></svg>