<svg xmlns="http://www.w3.org/2000/svg" viewBox="0 0 74.72 104.47"><defs><style>.cls-1{fill:#fff;}</style></defs><g id="Capa_2" data-name="Capa 2"><g id="Capa_1-2" data-name="Capa 1"><path class="cls-1" d="M72.59,44.6H46.91l7.85-7.85a2.15,2.15,0,0,0-3-3l-11.5,11.5a1.33,1.33,0,0,0-.25.3.23.23,0,0,0-.06.19c-.06.06-.06.12-.12.18s-.06.12-.06.24-.06.12-.06.18a2.08,2.08,0,0,0,0,.86c0,.06.06.12.06.18s.06.12.06.24.06.12.12.18.06.13.06.19a1.64,1.64,0,0,0,.25.3l11.5,11.5a2.2,2.2,0,0,0,3,0,2.13,2.13,0,0,0,0-3l-7.85-7.85H72.59a2.16,2.16,0,0,0,2.13-2.13,2.12,2.12,0,0,0-2.13-2.13Z"/><path class="cls-1" d="M45.51,59.69V89.2H36.08V13.33a2.08,2.08,0,0,0-1.46-2L14.79,4.26H45.51V33.77l3.11-3.1a5.53,5.53,0,0,1,1.15-.92V2.13A2.15,2.15,0,0,0,47.64,0H1.83c-.13,0-.25.06-.37.06s-.06,0-.12.06A1.49,1.49,0,0,0,.91.37L.85.43C.73.49.67.61.61.67L.49.79C.43.85.37,1,.3,1a.21.21,0,0,1-.06.13c-.06.12-.06.18-.12.3s0,.06-.06.12A1.38,1.38,0,0,0,0,2.07v89.2a.76.76,0,0,0,.06.36v.12c0,.06.06.19.06.25s.06.06.06.12.06.18.12.24l.07.06a1.08,1.08,0,0,0,.24.31l.06.06A.83.83,0,0,0,.91,93C1,93,1,93,1,93s.12.06.24.12.06.06.12.06h.06l31.76,11.13a3.18,3.18,0,0,0,.73.12,2.08,2.08,0,0,0,2.13-2.13v-9H47.64a2.16,2.16,0,0,0,2.13-2.13V63.58a5.48,5.48,0,0,1-1.15-.91ZM31.76,89.26V99.48l-17-6L4.32,89.87V5.17l27.44,9.68Z"/></g></g></svg>