<svg xmlns="http://www.w3.org/2000/svg" viewBox="0 0 60.61 60.61"><defs><style>.cls-1,.cls-2{fill:none;}.cls-2{stroke:#000;stroke-linecap:round;stroke-miterlimit:10;stroke-width:4px;}</style></defs><g id="Capa_2" data-name="Capa 2"><g id="Capa_1-2" data-name="Capa 1"><path d="M8.91,22.18h0a1.92,1.92,0,0,1-.24-2.7L18.49,9.3a1.92,1.92,0,0,1,2.7-.24h0a1.92,1.92,0,0,1,.24,2.7L11.61,21.94A1.92,1.92,0,0,1,8.91,22.18Z"/><path d="M8.72,19.62h0a1.92,1.92,0,0,1,2.71-.16l9.9,10.09a1.91,1.91,0,0,1,.17,2.7h0a1.92,1.92,0,0,1-2.71.17L8.89,22.33A1.92,1.92,0,0,1,8.72,19.62Z"/><rect class="cls-1" width="60.61" height="60.61"/><path class="cls-2" d="M33.22,52a15.62,15.62,0,1,0,0-31.24H11.77"/></g></g></svg>