<svg xmlns="http://www.w3.org/2000/svg" viewBox="0 0 50.82 54.15"><defs><style>.cls-1{fill:none;stroke:#000;stroke-linecap:round;stroke-miterlimit:10;stroke-width:4px;}</style></defs><g id="Capa_2" data-name="Capa 2"><g id="Capa_1-2" data-name="Capa 1"><path d="M.83,16.31h0a2.3,2.3,0,0,1-.29-3.25L12.34.83A2.29,2.29,0,0,1,15.58.54h0a2.29,2.29,0,0,1,.29,3.24L4.07,16A2.31,2.31,0,0,1,.83,16.31Z"/><path d="M.6,13.23h0A2.31,2.31,0,0,1,3.85,13l11.9,12.14a2.31,2.31,0,0,1,.2,3.25h0a2.31,2.31,0,0,1-3.25.2L.8,16.48A2.29,2.29,0,0,1,.6,13.23Z"/><path class="cls-1" d="M30,52.15A18.78,18.78,0,1,0,30,14.6H4.26"/></g></g></svg>